PathFileType	3	(X/Y/Z)	F:\ViconData\AntennenMessung\Messung1\Session1\ID19.trc
DataRate	CameraRate	NumFrames	NumMarkers	Units	OrigDataRate	OrigDataStartFrame	OrigNumFrames
120.0	120.0	4	70	mm	120.0	472	942	
Frame#	Time	Ashort			Along			Atop			A4			Bshort			Blong			Btop			B4			Cshort			Clong			Ctop			C4			Dshort			Dlong			Dtop			D4			Eshort			Elong			Etop			E4			Fshort			Flong			Ftop			F4			Gshort			Glong			Gtop			G4			Hshort			Hlong			Htop			H4			I1			I2			I3			I4			I5			WandAshort			WandAlong			WandAtop			WandA4			WandA15			WandBshort			WandB4			WandB5			WandBtop			WandBlong			WandCshort			WandClong			WandCtop			WandC4			WandC5			Acenter			Aantenna			Bcenter			Bantenna			Ccenter			Cantenna			Dcenter			Dantenna			Ecenter			Eantenna			Fcenter			Fantenna			Gcenter			Gantenna			Hcenter			Hantenna			Icenter			Iantenna			
		X1	Y1	Z1	X2	Y2	Z2	X3	Y3	Z3	X4	Y4	Z4	X5	Y5	Z5	X6	Y6	Z6	X7	Y7	Z7	X8	Y8	Z8	X9	Y9	Z9	X10	Y10	Z10	X11	Y11	Z11	X12	Y12	Z12	X13	Y13	Z13	X14	Y14	Z14	X15	Y15	Z15	X16	Y16	Z16	X17	Y17	Z17	X18	Y18	Z18	X19	Y19	Z19	X20	Y20	Z20	X21	Y21	Z21	X22	Y22	Z22	X23	Y23	Z23	X24	Y24	Z24	X25	Y25	Z25	X26	Y26	Z26	X27	Y27	Z27	X28	Y28	Z28	X29	Y29	Z29	X30	Y30	Z30	X31	Y31	Z31	X32	Y32	Z32	X33	Y33	Z33	X34	Y34	Z34	X35	Y35	Z35	X36	Y36	Z36	X37	Y37	Z37	X38	Y38	Z38	X39	Y39	Z39	X40	Y40	Z40	X41	Y41	Z41	X42	Y42	Z42	X43	Y43	Z43	X44	Y44	Z44	X45	Y45	Z45	X46	Y46	Z46	X47	Y47	Z47	X48	Y48	Z48	X49	Y49	Z49	X50	Y50	Z50	X51	Y51	Z51	X52	Y52	Z52	X53	Y53	Z53	X54	Y54	Z54	X55	Y55	Z55	X56	Y56	Z56	X57	Y57	Z57	X58	Y58	Z58	X59	Y59	Z59	X60	Y60	Z60	X61	Y61	Z61	X62	Y62	Z62	X63	Y63	Z63	X64	Y64	Z64	X65	Y65	Z65	X66	Y66	Z66	X67	Y67	Z67	X68	Y68	Z68	X69	Y69	Z69	X70	Y70	Z70	
472	3.925	-1038.2487	214.51491	-1644.1898	-1109.4062	204.10837	-1599.2961	-1063.8022	173.07092	-1625.6638	-1054.2183	262.24023	-1634.9122	-1353.0398	234.9084	1003.6143	-1281.3624	227.1152	1052.4584	-1322.7682	193.7859	1021.011	-1284.7465	287.78964	1052.8784	813.98932	187.5448	1209.4532	892.25391	178.53226	1179.1958	844.54999	145.29106	1198.3271	860.72711	292.50589	1168.0177	1115.7056	209.77951	-1401.8071	1056.1338	194.00107	-1460.4009	1095.1383	162.49861	-1424.0552	1069.8259	238.59982	-1425.8341	-1204.557	1685.9452	-1563.2058	-1129.2032	1688.2727	-1606.0038	-1173.2251	1724.4313	-1581.9589	-1134.0969	1580.9479	-1603.8302	-1239.6576	1699.2177	1119.5065	-1308.2233	1698.97	1068.9824	-1270.3964	1736.2605	1096.8595	-1244.6208	1593.8431	1106.4989	988.86743	1664.2123	1162.2607	955.9278	1702.3494	1181.0917	922.87738	1661.9863	1215.0817	939.79211	1659.3774	1159.9453	998.94672	1668.4442	-1579.4932	1058.6322	1669.946	-1518.6847	1024.8959	1708.0167	-1551.1547	1059.1821	1672.1281	-1585.4921	-186.32158	163.25258	-148.54153	-189.2406	171.78593	-64.524963	-186.79657	127.21865	-106.0732	-155.32797	168.06274	-111.69918	-236.13959	164.96281	-113.60236																																														-1068.7559	210.05334	-1624.9425	-1073.9324	248.7009	-1624.1888	-1321.4736	231.47633	1025.1248	-1320.1427	270.22351	1029.354	848.15717	183.6102	1196.2437	851.80688	222.38177	1194.1356	1088.7261	202.63361	-1428.3436	1082.6072	240.93259	-1432.436	-1171.9385	1686.9526	-1581.7318	-1170.6005	1647.9763	-1581.4956	-1270.3076	1699.1069	1096.9213	-1270.2146	1660.1071	1096.9863	953.77209	1704.8452	1182.324	973.15442	1731.7334	1161.7727	1026.3264	1669.1331	-1551.5981	1027.7601	1630.162	-1552.043	-187.65512	167.151	-110.15887	-188.48907	205.93959	-114.12751
473	3.9333333	-1038.2736	214.53864	-1644.2064	-1109.4139	204.02878	-1599.2565	-1063.7699	173.11598	-1625.674	-1054.219	262.2486	-1634.937	-1353.0328	234.96622	1003.5917	-1281.3151	227.0956	1052.4869	-1322.826	193.79176	1021.0141	-1284.7437	287.8028	1052.8319	813.91199	187.75093	1209.432	892.1297	178.37601	1179.3379	844.48395	145.40953	1198.3275	860.67737	292.54691	1167.7119	1115.7189	209.81288	-1401.802	1056.1499	193.99234	-1460.3746	1095.0999	162.36279	-1423.9572	1069.8065	238.61008	-1425.7889	-1204.6201	1686.0018	-1563.0547	-1129.1854	1688.307	-1606.0251	-1173.2289	1724.4232	-1581.9546	-1134.094	1580.9469	-1603.8191	-1239.6382	1699.1644	1119.4911	-1309.0785	1698.3448	1071.7411	-1270.403	1736.2874	1096.8612	-1244.6803	1593.6174	1106.5867	988.89545	1664.2192	1162.2635	955.90485	1702.3682	1181.1306	922.86835	1662.0723	1215.1091	939.77557	1659.4183	1159.9553	998.94238	1668.4291	-1579.4557	1058.6383	1669.9515	-1518.682	1024.901	1708.0225	-1551.1497	1059.1886	1672.1257	-1585.4882	-186.30399	163.45804	-148.50826	-189.23384	171.80768	-64.541206	-186.79573	127.11797	-106.05175	-155.3203	168.06493	-111.7011	-236.08443	164.92493	-113.54092																																														-1068.7618	210.03447	-1624.9424	-1073.9866	248.67534	-1624.1768	-1321.4768	231.50311	1025.1056	-1320.0907	270.25107	1029.3096	848.25421	183.63477	1196.2189	852.07654	222.38809	1194.0811	1088.7203	202.64253	-1428.3488	1082.6548	240.94099	-1432.5244	-1171.9275	1687.0007	-1581.6776	-1170.572	1648.0254	-1581.3892	-1270.7909	1698.7966	1098.0691	-1271.1945	1659.8188	1099.325	953.70062	1704.9169	1182.3911	973.06299	1731.823	1161.8446	1026.3274	1669.1274	-1551.5763	1027.7565	1630.156	-1552.0038	-187.64502	167.2798	-110.07505	-188.46547	206.07698	-113.96165
474	3.9416667	-1038.2771	214.52661	-1644.2094	-1109.4171	204.05272	-1599.2533	-1063.8131	173.06584	-1625.6766	-1054.2196	262.34265	-1635.0043	-1352.9938	234.88194	1003.743	-1281.3361	227.17868	1052.4463	-1322.8052	193.79797	1020.9916	-1284.7557	287.86316	1052.8459	813.828	187.84972	1209.5188	892.2608	178.53488	1179.215	844.2608	145.67999	1198.2218	860.82697	292.52124	1168.3298	1115.7091	209.80226	-1401.8114	1056.0962	193.96941	-1460.4135	1095.1481	162.52101	-1423.9977	1069.8033	238.62439	-1425.8555	-1204.6276	1685.9999	-1563.0659	-1129.1958	1688.3051	-1606.0542	-1173.2247	1724.4326	-1581.949	-1134.1022	1580.9558	-1603.8311	-1239.6331	1699.1713	1119.4946	-1308.1986	1699.1661	1068.0872	-1270.3866	1736.2625	1096.8589	-1244.7351	1593.5078	1106.5962	988.87836	1664.1957	1162.2545	955.98523	1702.3241	1181.1558	922.72058	1662.0162	1215.0973	939.80072	1659.3835	1159.9067	998.94733	1668.4417	-1579.4646	1058.7695	1670.1248	-1518.6611	1024.9083	1708.0227	-1551.1388	1059.1829	1672.124	-1585.4761	-186.30528	163.26251	-148.54359	-189.2289	171.78212	-64.547691	-186.83926	127.09211	-106.05629	-155.32375	168.04524	-111.67059	-236.16628	164.94026	-113.55729																																														-1068.7844	210.035	-1624.9305	-1073.9813	248.67935	-1624.1506	-1321.5526	231.50198	1025.1124	-1320.2655	270.25	1029.3473	848.0434	183.78621	1196.299	851.89099	222.54663	1194.3431	1088.7424	202.64008	-1428.3207	1082.6279	240.93607	-1432.4471	-1171.9366	1686.9988	-1581.6963	-1170.5956	1648.0228	-1581.4331	-1270.1823	1699.1691	1096.5901	-1269.9675	1660.1705	1096.3076	953.72449	1704.9446	1182.4548	973.16229	1731.8585	1161.9899	1026.4147	1669.2144	-1551.5466	1027.9272	1630.2458	-1551.9562	-187.64169	167.15694	-110.14794	-188.41861	205.94745	-114.10946
475	3.95	-1038.2534	214.52724	-1644.2065	-1109.42	204.05197	-1599.257	-1063.8794	173.08287	-1625.641	-1054.2134	262.2749	-1634.946	-1352.994	234.98445	1003.7713	-1281.3192	227.13754	1052.3943	-1322.818	193.81256	1020.9657	-1284.7611	287.9238	1052.8402	813.90015	187.74152	1209.5087	892.12799	178.40282	1179.3081	844.48041	145.37718	1198.3373	860.84558	292.49673	1168.2535	1115.6747	209.51805	-1401.6622	1056.1448	194.0327	-1460.4432	1095.1458	162.38138	-1423.9554	1069.8419	238.66214	-1425.8473	-1204.5603	1685.9517	-1563.2214	-1129.1902	1688.2804	-1606.022	-1173.2399	1724.4106	-1581.9365	-1134.0974	1580.9663	-1603.8468	-1239.6479	1699.2008	1119.4906	-1309.0472	1698.2583	1071.7126	-1270.4194	1736.3041	1096.8761	-1244.6548	1593.5233	1106.4274	988.97742	1664.2823	1162.2808	955.93842	1702.1974	1181.131	922.79028	1661.9612	1215.0701	939.78162	1659.371	1159.9421	998.94604	1668.4346	-1579.4674	1058.6886	1669.9647	-1518.6677	1024.901	1708.0076	-1551.1345	1059.1874	1672.135	-1585.488	-186.28813	163.27141	-148.55945	-189.22719	171.79634	-64.530525	-186.82024	127.09193	-106.01817	-155.36021	168.06146	-111.68002	-236.13332	164.94519	-113.58271																																														-1068.8408	210.02495	-1624.8871	-1074.0311	248.67	-1624.0986	-1321.5117	231.5378	1025.1283	-1320.1702	270.27957	1029.4031	848.24261	183.64175	1196.2504	852.05316	222.39755	1194.1365	1088.8453	202.539	-1428.1541	1082.8326	240.86382	-1432.161	-1171.9659	1686.9586	-1581.7308	-1170.6403	1647.9818	-1581.5168	-1270.7415	1698.7784	1098.0842	-1271.0759	1659.8	1099.339	953.54022	1704.9495	1182.4993	972.85675	1731.954	1162.0389	1026.3492	1669.1364	-1551.5792	1027.8011	1630.1659	-1552.0251	-187.63287	167.17191	-110.11278	-188.41936	205.96208	-114.07564
